<svg width="560" height="320" viewBox="0 0 560 320" fill="none" xmlns="http://www.w3.org/2000/svg" role="img" aria-labelledby="monitoring-title monitoring-desc">
  <title id="monitoring-title">Monitoring project thumbnail</title>
  <desc id="monitoring-desc">A monitoring dashboard with charts and uptime status.</desc>
  <rect width="560" height="320" rx="24" fill="#0B1120"/>
  <rect x="40" y="42" width="480" height="236" rx="20" fill="#111827" stroke="#60A5FA" stroke-opacity=".38" stroke-width="2"/>
  <rect x="72" y="76" width="118" height="72" rx="14" fill="#172554"/>
  <rect x="216" y="76" width="118" height="72" rx="14" fill="#164E63"/>
  <rect x="360" y="76" width="118" height="72" rx="14" fill="#172554"/>
  <path d="M76 226c40-62 76-35 112-62 45-34 70 38 116 6 38-27 58-76 102-52 27 14 46 48 78 28" stroke="#67E8F9" stroke-width="10" stroke-linecap="round" stroke-linejoin="round"/>
  <path d="M88 238h384" stroke="#334155" stroke-width="3" stroke-linecap="round"/>
  <circle cx="131" cy="112" r="17" fill="#67E8F9"/>
  <circle cx="275" cy="112" r="17" fill="#38BDF8"/>
  <circle cx="419" cy="112" r="17" fill="#67E8F9"/>
  <path d="M104 112h54M248 112h54M392 112h54" stroke="#E0F2FE" stroke-opacity=".6" stroke-width="8" stroke-linecap="round"/>
</svg>
